<svg width="160" height="20" fill="none" xmlns="http://www.w3.org/2000/svg"><path d="M17.891 3.76c1.806 0 3.157.627 4.055 1.88.898 1.245 1.347 3.018 1.347 5.32v7.801h-4.265v-7.704c0-1.15-.215-1.992-.646-2.525-.43-.543-1.024-.814-1.782-.814-.496 0-.964.163-1.403.49-.43.319-.777.768-1.038 1.348-.253.58-.38 1.244-.38 1.993v7.212H9.515v-7.704c0-1.16-.215-2.006-.646-2.54-.42-.533-1.015-.8-1.782-.8-.496 0-.959.164-1.389.492-.43.318-.776.772-1.038 1.361-.262.58-.393 1.24-.393 1.979v7.212H0V4.224h4.041l.056 1.754c.384-.655.955-1.188 1.712-1.6.767-.412 1.623-.617 2.568-.617 1.132 0 2.082.248 2.849.743.776.496 1.375 1.221 1.796 2.175.645-1.01 1.37-1.749 2.175-2.217.804-.468 1.702-.701 2.694-.701zM40.89 11.38c0 .346-.028.744-.084 1.193H30.085c.168.954.543 1.684 1.123 2.189.58.496 1.295.744 2.147.744 1.347 0 2.212-.496 2.596-1.488h4.63c-.224.898-.66 1.745-1.305 2.54-.645.795-1.469 1.44-2.47 1.936-1 .487-2.123.73-3.367.73-1.478 0-2.802-.346-3.971-1.038a7.398 7.398 0 01-2.723-2.807c-.655-1.188-.982-2.483-.982-3.887 0-1.412.323-2.708.968-3.887A7.366 7.366 0 0129.468 4.8c1.169-.692 2.493-1.038 3.97-1.038 1.479 0 2.78.341 3.902 1.024a7.009 7.009 0 012.624 2.778c.617 1.16.926 2.433.926 3.817zm-4.42-1.726a2.28 2.28 0 00-.492-1.193 2.735 2.735 0 00-1.094-.842 3.334 3.334 0 00-1.431-.308c-.72 0-1.37.192-1.95.575-.58.384-.997.973-1.25 1.768h6.217zM47.373 4.224v1.754c.42-.664 1.038-1.198 1.852-1.6.823-.412 1.726-.617 2.708-.617 1.937 0 3.387.626 4.35 1.88.973 1.244 1.46 3.017 1.46 5.318v7.802H53.42v-7.704c0-1.16-.238-2.006-.715-2.54-.477-.533-1.141-.8-1.993-.8-.57 0-1.094.146-1.571.436-.477.28-.86.71-1.15 1.29-.282.571-.422 1.273-.422 2.106v7.212h-4.322V4.224h4.126zM67.144 18.761c-1.422 0-2.62-.383-3.592-1.15-.964-.768-1.446-2.274-1.446-4.519V7.9h-2.792V4.224h2.792V.028L66.428 0v4.224h3.93V7.9h-3.93v5.389c0 .664.15 1.15.45 1.459.299.3.696.449 1.192.449h2.287v3.564h-3.213zM79.31 19.224c-1.478 0-2.806-.341-3.985-1.024a7.47 7.47 0 01-2.75-2.807c-.655-1.188-.983-2.488-.983-3.9 0-1.413.328-2.709.983-3.888a7.336 7.336 0 012.75-2.806c1.178-.692 2.511-1.038 3.999-1.038 1.497 0 2.834.346 4.013 1.038a7.41 7.41 0 012.778 2.806c.665 1.18.997 2.475.997 3.887 0 1.422-.332 2.723-.996 3.901a7.41 7.41 0 01-2.779 2.807c-1.179.683-2.521 1.024-4.027 1.024zm.042-3.985c.674 0 1.272-.16 1.796-.477a3.23 3.23 0 001.235-1.32c.3-.57.449-1.22.449-1.95s-.15-1.375-.449-1.936a3.209 3.209 0 00-1.235-1.333c-.524-.318-1.122-.477-1.796-.477-.674 0-1.277.159-1.81.477a3.335 3.335 0 00-1.235 1.333c-.29.561-.435 1.207-.435 1.936 0 .73.145 1.38.435 1.95.3.562.711 1.002 1.235 1.32.533.318 1.136.477 1.81.477zM93.749 4.224v2.048c.748-1.365 1.894-2.048 3.438-2.048h1.684V7.9h-1.445c-1.095 0-1.951.36-2.568 1.08-.609.72-.913 1.75-.913 3.088v6.693H89.61V4.224h4.139zM106.35 19.238c-1.272 0-2.418-.346-3.438-1.038-1.02-.692-1.819-1.628-2.399-2.807-.571-1.188-.856-2.488-.856-3.9 0-1.404.29-2.695.87-3.874.58-1.178 1.375-2.114 2.385-2.806a5.88 5.88 0 013.41-1.052c1.076 0 2.025.205 2.848.617.833.402 1.469.973 1.909 1.712V4.224h4.097V18.76h-4.111v-1.838c-.44.739-1.071 1.31-1.895 1.712-.823.402-1.763.603-2.82.603zm1.052-3.985c.646 0 1.235-.164 1.768-.491a3.494 3.494 0 001.263-1.347c.309-.58.463-1.221.463-1.923 0-.683-.154-1.31-.463-1.88a3.573 3.573 0 00-1.263-1.375 3.218 3.218 0 00-1.754-.505c-.645 0-1.234.154-1.768.463-.524.3-.94.734-1.249 1.305-.308.57-.463 1.235-.463 1.992 0 .795.155 1.478.463 2.05.319.56.739.986 1.263 1.276.534.29 1.114.435 1.74.435zM136.407 3.76c1.805 0 3.157.627 4.055 1.88.898 1.245 1.347 3.018 1.347 5.32v7.801h-4.266v-7.704c0-1.15-.215-1.992-.645-2.525-.43-.543-1.024-.814-1.782-.814-.496 0-.964.163-1.403.49-.431.319-.777.768-1.039 1.348-.252.58-.379 1.244-.379 1.993v7.212h-4.265v-7.704c0-1.16-.215-2.006-.646-2.54-.421-.533-1.015-.8-1.782-.8-.496 0-.959.164-1.389.492-.43.318-.777.772-1.038 1.361-.262.58-.393 1.24-.393 1.979v7.212h-4.266V4.224h4.041l.056 1.754c.384-.655.954-1.188 1.712-1.6.767-.412 1.623-.617 2.568-.617 1.132 0 2.082.248 2.849.743.776.496 1.375 1.221 1.796 2.175.645-1.01 1.37-1.749 2.175-2.217.804-.468 1.702-.701 2.694-.701zM150.972 19.238c-1.272 0-2.418-.346-3.438-1.038-1.019-.692-1.819-1.628-2.399-2.807-.571-1.188-.856-2.488-.856-3.9 0-1.404.29-2.695.87-3.874.58-1.178 1.375-2.114 2.385-2.806a5.882 5.882 0 013.41-1.052c1.076 0 2.026.205 2.849.617.832.402 1.468.973 1.908 1.712V4.224h4.098V18.76h-4.112v-1.838c-.44.739-1.071 1.31-1.894 1.712-.823.402-1.764.603-2.821.603zm1.053-3.985c.645 0 1.235-.164 1.768-.491a3.51 3.51 0 001.263-1.347c.308-.58.463-1.221.463-1.923 0-.683-.155-1.31-.463-1.88a3.588 3.588 0 00-1.263-1.375 3.22 3.22 0 00-1.754-.505c-.646 0-1.235.154-1.768.463-.524.3-.94.734-1.249 1.305-.309.57-.463 1.235-.463 1.992 0 .795.154 1.478.463 2.05a3.25 3.25 0 001.263 1.276c.533.29 1.113.435 1.74.435z" fill="#1F1F1F"/></svg>