<svg width="20" height="17" fill="none" xmlns="http://www.w3.org/2000/svg"><path fill-rule="evenodd" clip-rule="evenodd" d="M20 2.59a8.194 8.194 0 01-2.357.646 4.114 4.114 0 001.804-2.27 8.218 8.218 0 01-2.605.996A4.103 4.103 0 009.85 5.704a11.647 11.647 0 01-8.457-4.286A4.081 4.081 0 00.838 3.48a4.1 4.1 0 001.825 3.415 4.09 4.09 0 01-1.86-.513v.051a4.108 4.108 0 003.292 4.025 4.125 4.125 0 01-1.853.07 4.109 4.109 0 003.833 2.85A8.235 8.235 0 010 15.076a11.616 11.616 0 006.29 1.844c7.546 0 11.673-6.252 11.673-11.674 0-.178-.003-.355-.012-.53A8.357 8.357 0 0020 2.59z" fill="#fff"/></svg>